<svg width="2941" height="800" viewBox="0 0 2941 800" fill="none" xmlns="http://www.w3.org/2000/svg">
<rect width="2941" height="772" rx="96" fill="white"/>
<path d="M348.334 75L108.833 563.333L188.167 725L506.833 75H348.334Z" stroke="black" stroke-width="16.6667" stroke-linecap="round" stroke-linejoin="round"/>
<path d="M751.167 553.333L667 725L582.833 553.333H751.167Z" stroke="black" stroke-width="16.6667" stroke-linecap="round" stroke-linejoin="round"/>
<path d="M506.833 75L662.166 391.667L582.833 553.333L427.667 236.667L506.833 75Z" stroke="black" stroke-width="16.6667" stroke-linecap="round" stroke-linejoin="round"/>
<path d="M347.5 400H507.667" stroke="black" stroke-width="16.6667" stroke-linecap="round" stroke-linejoin="round"/>
<path d="M272.333 553.5H582.833" stroke="black" stroke-width="16.6667" stroke-linecap="round" stroke-linejoin="round"/>
<path d="M999.346 356V196H1044.15C1065.75 196 1081.95 202.733 1092.75 216.2C1103.68 229.533 1109.15 249.467 1109.15 276C1109.15 302.533 1103.68 322.533 1092.75 336C1081.95 349.333 1065.75 356 1044.15 356H999.346ZM1022.15 334.6H1044.15C1058.28 334.6 1068.81 329.8 1075.75 320.2C1082.81 310.467 1086.35 295.733 1086.35 276C1086.35 256.133 1082.81 241.4 1075.75 231.8C1068.81 222.2 1058.28 217.4 1044.15 217.4H1022.15V334.6ZM1190.79 359.2C1179.72 359.2 1170.12 356.667 1161.99 351.6C1153.85 346.4 1147.52 339.067 1142.99 329.6C1138.59 320.133 1136.39 308.933 1136.39 296C1136.39 283.067 1138.59 271.867 1142.99 262.4C1147.52 252.933 1153.85 245.667 1161.99 240.6C1170.12 235.4 1179.72 232.8 1190.79 232.8C1201.99 232.8 1211.59 235.4 1219.59 240.6C1227.72 245.667 1233.99 252.933 1238.39 262.4C1242.92 271.867 1245.19 283.067 1245.19 296C1245.19 308.933 1242.92 320.133 1238.39 329.6C1233.99 339.067 1227.72 346.4 1219.59 351.6C1211.59 356.667 1201.99 359.2 1190.79 359.2ZM1190.79 338.6C1201.05 338.6 1209.05 334.867 1214.79 327.4C1220.52 319.933 1223.39 309.467 1223.39 296C1223.39 282.533 1220.52 272.067 1214.79 264.6C1209.05 257.133 1201.05 253.4 1190.79 253.4C1180.52 253.4 1172.52 257.133 1166.79 264.6C1161.05 272.067 1158.19 282.533 1158.19 296C1158.19 309.467 1161.05 319.933 1166.79 327.4C1172.52 334.867 1180.52 338.6 1190.79 338.6ZM1288.22 356L1266.82 236H1288.82L1298.82 300L1303.02 340H1305.02L1316.42 236H1346.82L1358.62 340H1360.62L1364.62 300L1374.82 236H1394.82L1373.42 356H1343.62L1331.82 251.4H1329.82L1318.42 356H1288.22ZM1423.46 356V236H1445.46V245H1451.46C1454.53 241.133 1458.46 238.133 1463.26 236C1468.06 233.867 1473.33 232.8 1479.06 232.8C1487.46 232.8 1494.73 234.667 1500.86 238.4C1507 242.133 1511.8 247.4 1515.26 254.2C1518.73 261 1520.46 269 1520.46 278.2V356H1498.46V284.2C1498.46 274.2 1496.2 266.667 1491.66 261.6C1487.26 256.4 1480.73 253.8 1472.06 253.8C1463.4 253.8 1456.8 256.4 1452.26 261.6C1447.73 266.667 1445.46 274.2 1445.46 284.2V356H1423.46ZM1566.9 186.4H1625.3V335.4H1661.5V356H1566.9V335.4H1603.3V207H1566.9V186.4ZM1750.94 359.2C1739.87 359.2 1730.27 356.667 1722.14 351.6C1714.01 346.4 1707.67 339.067 1703.14 329.6C1698.74 320.133 1696.54 308.933 1696.54 296C1696.54 283.067 1698.74 271.867 1703.14 262.4C1707.67 252.933 1714.01 245.667 1722.14 240.6C1730.27 235.4 1739.87 232.8 1750.94 232.8C1762.14 232.8 1771.74 235.4 1779.74 240.6C1787.87 245.667 1794.14 252.933 1798.54 262.4C1803.07 271.867 1805.34 283.067 1805.34 296C1805.34 308.933 1803.07 320.133 1798.54 329.6C1794.14 339.067 1787.87 346.4 1779.74 351.6C1771.74 356.667 1762.14 359.2 1750.94 359.2ZM1750.94 338.6C1761.21 338.6 1769.21 334.867 1774.94 327.4C1780.67 319.933 1783.54 309.467 1783.54 296C1783.54 282.533 1780.67 272.067 1774.94 264.6C1769.21 257.133 1761.21 253.4 1750.94 253.4C1740.67 253.4 1732.67 257.133 1726.94 264.6C1721.21 272.067 1718.34 282.533 1718.34 296C1718.34 309.467 1721.21 319.933 1726.94 327.4C1732.67 334.867 1740.67 338.6 1750.94 338.6ZM1918.18 281V300.4L1882.18 306C1876.58 306.933 1872.38 308.867 1869.58 311.8C1866.91 314.733 1865.58 318.6 1865.58 323.4C1865.58 327.933 1867.25 331.6 1870.58 334.4C1874.05 337.2 1878.45 338.6 1883.78 338.6C1889.65 338.6 1894.98 337.2 1899.78 334.4C1904.71 331.6 1908.65 327.867 1911.58 323.2C1914.51 318.4 1915.98 313.133 1915.98 307.4V278C1915.98 270.267 1913.65 264.2 1908.98 259.8C1904.31 255.4 1897.91 253.2 1889.78 253.2C1884.05 253.2 1878.91 254.133 1874.38 256C1869.85 257.867 1866.11 260.6 1863.18 264.2C1860.38 267.8 1858.45 272.2 1857.38 277.4H1836.38C1837.05 268.2 1839.65 260.267 1844.18 253.6C1848.85 246.933 1855.11 241.8 1862.98 238.2C1870.85 234.6 1879.98 232.8 1890.38 232.8C1905.31 232.8 1916.85 236.6 1924.98 244.2C1933.25 251.8 1937.38 262.6 1937.38 276.6V356H1915.98V345H1909.98C1906.78 349.533 1902.58 353 1897.38 355.4C1892.31 357.8 1886.05 359 1878.58 359C1871.25 359 1864.85 357.6 1859.38 354.8C1854.05 351.867 1849.85 347.8 1846.78 342.6C1843.85 337.4 1842.38 331.333 1842.38 324.4C1842.38 314.4 1845.58 306.2 1851.98 299.8C1858.38 293.267 1867.51 289.067 1879.38 287.2L1918.18 281ZM2022.62 359.2C2012.62 359.2 2003.95 356.667 1996.62 351.6C1989.42 346.4 1983.75 339.067 1979.62 329.6C1975.62 320.133 1973.62 308.933 1973.62 296C1973.62 283.067 1975.62 271.867 1979.62 262.4C1983.75 252.933 1989.42 245.667 1996.62 240.6C2003.95 235.4 2012.62 232.8 2022.62 232.8C2029.15 232.8 2035.09 234.067 2040.42 236.6C2045.75 239.133 2049.69 242.6 2052.22 247H2058.22V186.4H2080.22V356H2058.22V345H2052.22C2049.69 349.267 2045.75 352.733 2040.42 355.4C2035.09 357.933 2029.15 359.2 2022.62 359.2ZM2027.22 338.6C2037.35 338.6 2045.15 334.867 2050.62 327.4C2056.22 319.933 2059.02 309.467 2059.02 296C2059.02 282.533 2056.22 272.067 2050.62 264.6C2045.15 257.133 2037.35 253.4 2027.22 253.4C2017.22 253.4 2009.42 257.133 2003.82 264.6C1998.35 272.067 1995.62 282.533 1995.62 296C1995.62 309.467 1998.35 319.933 2003.82 327.4C2009.42 334.867 2017.22 338.6 2027.22 338.6ZM2316.1 356H2294.1V256.6H2267.3V236H2294.1V223C2294.1 210.6 2297.63 200.867 2304.7 193.8C2311.9 186.733 2321.83 183.2 2334.5 183.2C2346.5 183.2 2356.03 186.267 2363.1 192.4C2370.3 198.533 2374.23 207.067 2374.9 218H2354.9C2353.03 213.333 2350.36 209.8 2346.9 207.4C2343.56 204.867 2339.43 203.6 2334.5 203.6C2328.63 203.6 2324.1 205.4 2320.9 209C2317.7 212.6 2316.1 217.733 2316.1 224.4V236H2361.7V256.6H2316.1V356ZM2400.14 236H2446.94V244.8H2452.94C2455.34 240.933 2458.6 238 2462.74 236C2466.87 233.867 2471.6 232.8 2476.94 232.8C2486.54 232.8 2494.14 236.2 2499.74 243C2505.34 249.667 2508.14 258.867 2508.14 270.6V288H2485.34V273.8C2485.34 260.333 2479.87 253.6 2468.94 253.6C2462 253.6 2456.8 256.733 2453.34 263C2450 269.133 2448.34 278.333 2448.34 290.6V335.4H2485.54V356H2403.74V335.4H2426.34V256.6H2400.14V236ZM2591.18 359.2C2580.11 359.2 2570.51 356.667 2562.38 351.6C2554.24 346.4 2547.91 339.067 2543.38 329.6C2538.98 320.133 2536.78 308.933 2536.78 296C2536.78 283.067 2538.98 271.867 2543.38 262.4C2547.91 252.933 2554.24 245.667 2562.38 240.6C2570.51 235.4 2580.11 232.8 2591.18 232.8C2602.38 232.8 2611.98 235.4 2619.98 240.6C2628.11 245.667 2634.38 252.933 2638.78 262.4C2643.31 271.867 2645.58 283.067 2645.58 296C2645.58 308.933 2643.31 320.133 2638.78 329.6C2634.38 339.067 2628.11 346.4 2619.98 351.6C2611.98 356.667 2602.38 359.2 2591.18 359.2ZM2591.18 338.6C2601.44 338.6 2609.44 334.867 2615.18 327.4C2620.91 319.933 2623.78 309.467 2623.78 296C2623.78 282.533 2620.91 272.067 2615.18 264.6C2609.44 257.133 2601.44 253.4 2591.18 253.4C2580.91 253.4 2572.91 257.133 2567.18 264.6C2561.44 272.067 2558.58 282.533 2558.58 296C2558.58 309.467 2561.44 319.933 2567.18 327.4C2572.91 334.867 2580.91 338.6 2591.18 338.6ZM2676.41 236H2698.41V245.6H2714.21L2702.41 252.6C2702.81 246.467 2704.68 241.667 2708.01 238.2C2711.48 234.6 2715.95 232.8 2721.41 232.8C2726.61 232.8 2730.95 234.8 2734.41 238.8C2737.88 242.8 2740.01 248.2 2740.81 255L2728.41 246.6H2754.21L2743.01 253C2743.41 246.867 2745.48 242 2749.21 238.4C2753.08 234.667 2757.95 232.8 2763.81 232.8C2770.75 232.8 2776.28 235.733 2780.41 241.6C2784.68 247.333 2786.81 255.067 2786.81 264.8V356H2765.81V273.4C2765.81 267.933 2764.81 263.867 2762.81 261.2C2760.81 258.4 2757.81 257 2753.81 257C2749.95 257 2747.01 258.4 2745.01 261.2C2743.01 263.867 2742.01 267.933 2742.01 273.4V356H2721.21V273.4C2721.21 267.933 2720.21 263.867 2718.21 261.2C2716.21 258.4 2713.28 257 2709.41 257C2705.41 257 2702.41 258.4 2700.41 261.2C2698.41 263.867 2697.41 267.933 2697.41 273.4V356H2676.41V236ZM1411.26 596L1452.26 436H1489.46L1530.46 596H1506.66L1471.26 453H1469.26L1433.66 596H1411.26ZM1436.26 541.8V520.2H1505.46V541.8H1436.26ZM1566.9 596V436H1621.7C1631.84 436 1640.64 437.933 1648.1 441.8C1655.57 445.667 1661.37 451.133 1665.5 458.2C1669.64 465.133 1671.7 473.4 1671.7 483C1671.7 492.6 1669.64 500.933 1665.5 508C1661.37 514.933 1655.57 520.333 1648.1 524.2C1640.64 527.933 1631.84 529.8 1621.7 529.8H1589.7V596H1566.9ZM1589.7 509.4H1622.5C1630.64 509.4 1637.04 507.067 1641.7 502.4C1646.5 497.733 1648.9 491.4 1648.9 483.4C1648.9 475.4 1646.5 469.067 1641.7 464.4C1637.04 459.733 1630.64 457.4 1622.5 457.4H1589.7V509.4ZM1708.54 436H1731.34V596H1708.54V436ZM1780.74 596L1724.54 518.6L1784.34 436H1810.74L1751.54 517.6L1808.54 596H1780.74ZM1846.98 596V436H1901.78C1911.91 436 1920.71 437.933 1928.18 441.8C1935.65 445.667 1941.45 451.133 1945.58 458.2C1949.71 465.133 1951.78 473.4 1951.78 483C1951.78 492.6 1949.71 500.933 1945.58 508C1941.45 514.933 1935.65 520.333 1928.18 524.2C1920.71 527.933 1911.91 529.8 1901.78 529.8H1869.78V596H1846.98ZM1869.78 509.4H1902.58C1910.71 509.4 1917.11 507.067 1921.78 502.4C1926.58 497.733 1928.98 491.4 1928.98 483.4C1928.98 475.4 1926.58 469.067 1921.78 464.4C1917.11 459.733 1910.71 457.4 1902.58 457.4H1869.78V509.4ZM2078.42 476V596H2056.42V587H2050.42C2047.35 590.867 2043.42 593.867 2038.62 596C2033.95 598.133 2028.69 599.2 2022.82 599.2C2014.55 599.2 2007.29 597.333 2001.02 593.6C1994.89 589.867 1990.09 584.6 1986.62 577.8C1983.15 571 1981.42 563 1981.42 553.8V476H2003.42V547.8C2003.42 557.8 2005.62 565.4 2010.02 570.6C2014.55 575.667 2021.15 578.2 2029.82 578.2C2038.49 578.2 2045.09 575.667 2049.62 570.6C2054.15 565.4 2056.42 557.8 2056.42 547.8V476H2078.42ZM2120.06 476H2166.86V484.8H2172.86C2175.26 480.933 2178.53 478 2182.66 476C2186.79 473.867 2191.53 472.8 2196.86 472.8C2206.46 472.8 2214.06 476.2 2219.66 483C2225.26 489.667 2228.06 498.867 2228.06 510.6V528H2205.26V513.8C2205.26 500.333 2199.79 493.6 2188.86 493.6C2181.93 493.6 2176.73 496.733 2173.26 503C2169.93 509.133 2168.26 518.333 2168.26 530.6V575.4H2205.46V596H2123.66V575.4H2146.26V496.6H2120.06V476ZM2276.9 523.8H2349.1L2341.7 534.2C2341.7 520.733 2339.3 510.467 2334.5 503.4C2329.7 496.333 2322.7 492.8 2313.5 492.8C2303.5 492.8 2295.7 496.533 2290.1 504C2284.5 511.333 2281.7 521.667 2281.7 535C2281.7 549.267 2284.5 560.2 2290.1 567.8C2295.7 575.4 2303.7 579.2 2314.1 579.2C2320.9 579.2 2326.83 577.533 2331.9 574.2C2336.96 570.733 2341.23 565.733 2344.7 559.2H2365.3C2363.3 567.467 2359.9 574.6 2355.1 580.6C2350.43 586.6 2344.56 591.2 2337.5 594.4C2330.56 597.6 2322.76 599.2 2314.1 599.2C2302.9 599.2 2293.23 596.667 2285.1 591.6C2277.1 586.533 2270.96 579.2 2266.7 569.6C2262.43 560 2260.3 548.467 2260.3 535C2260.3 522.2 2262.43 511.2 2266.7 502C2271.1 492.667 2277.3 485.467 2285.3 480.4C2293.3 475.333 2302.7 472.8 2313.5 472.8C2323.76 472.8 2332.5 475.2 2339.7 480C2346.9 484.8 2352.43 491.8 2356.3 501C2360.16 510.067 2362.1 521.067 2362.1 534C2362.1 535.467 2362.03 537 2361.9 538.6C2361.9 540.2 2361.83 541.733 2361.7 543.2H2276.9V523.8Z" fill="black"/>
</svg>
