<svg width="1329" height="1329" viewBox="0 0 1329 1329" fill="none" xmlns="http://www.w3.org/2000/svg">
<circle cx="664.5" cy="664.5" r="664.5" fill="white"/>
<ellipse cx="671.689" cy="190.98" rx="54.6742" ry="41.9893" fill="#1677EA"/>
<path d="M997.333 537.548C997.333 453.056 962.217 372.026 899.7 312.282C837.189 252.537 752.406 218.973 664 218.973C575.594 218.973 490.81 252.537 428.298 312.282C365.786 372.026 330.667 453.056 330.667 537.548C330.667 909.22 164 1015.41 164 1015.41H1164C1164 1015.41 997.333 909.22 997.333 537.548Z" fill="#1677EA"/>
<path d="M760.111 1064.4C750.345 1079.48 736.328 1092.01 719.456 1100.71C702.589 1109.42 683.467 1114 664 1114C644.534 1114 625.411 1109.42 608.545 1100.71C591.678 1092.01 577.656 1079.48 567.889 1064.4" fill="#1677EA"/>
<path d="M664.1 386C668.767 398.6 671.333 407 671.8 411.2C672.733 420.067 669.467 427.533 662 433.6C662 434.067 661.533 434.767 660.6 435.7C664.8 457.633 665.733 478.167 663.4 497.3C661.067 516.433 658.033 534.867 654.3 552.6C679.5 509.667 699.567 478.167 714.5 458.1C745.3 416.567 774 386.933 800.6 369.2C809.467 364.067 820.2 360.333 832.8 358C845.867 355.2 858.233 354.733 869.9 356.6C881.567 358.467 891.133 363.133 898.6 370.6C906.533 378.067 910.033 389.267 909.1 404.2C896.033 495.2 882.033 580.133 867.1 659C852.167 737.4 832.8 812.3 809 883.7V885.1H808.3C802.7 901.9 788.7 913.8 766.3 920.8C744.367 927.333 724.767 927.8 707.5 922.2C686.5 916.133 676.933 904.933 678.8 888.6L679.5 872.5V871.1C681.367 859.9 682.3 852.433 682.3 848.7C682.767 844.5 683.233 841.467 683.7 839.6C684.633 827.467 686.5 816.267 689.3 806C692.567 795.267 694.9 786.633 696.3 780.1C697.7 773.567 699.1 767.5 700.5 761.9C701.9 755.833 702.833 751.167 703.3 747.9C685.567 772.167 672.967 786.867 665.5 792C646.833 805.067 625.133 811.133 600.4 810.2C585 809.267 576.133 805.767 573.8 799.7C569.133 786.633 565.867 778.933 564 776.6C561.2 772.867 558.867 766.567 557 757.7C544.867 811.367 532.967 849.4 521.3 871.8C516.633 880.667 511.967 888.6 507.3 895.6C500.767 911 485.833 921.733 462.5 927.8C440.567 933.867 419.567 933.4 399.5 926.4C378.967 919.867 369.167 908.2 370.1 891.4C371.033 874.6 374.533 853.6 380.6 828.4C386.2 802.733 392.967 775.667 400.9 747.2C424.7 657.133 441.5 598.567 451.3 571.5C461.567 544.433 470.2 523.2 477.2 507.8C494 471.867 508.933 445.733 522 429.4C536.467 400 560.5 382.267 594.1 376.2C620.7 371.067 644.033 374.333 664.1 386Z" fill="white"/>
</svg>
